<svg xmlns="http://www.w3.org/2000/svg" width="19" height="19" viewBox="0 0 19 19">
  <g id="ico_cancel" transform="translate(-4.5 -4.5)">
    <g id="Group_5480" data-name="Group 5480" transform="translate(5 5)">
      <path id="Path_13136" data-name="Path 13136" d="M37.88,30.28a.628.628,0,0,0-.88,0L34.08,33.2l-2.9-2.92a.622.622,0,0,0-.88.88l2.9,2.92-2.92,2.9a.628.628,0,0,0,0,.88.628.628,0,0,0,.88,0l2.92-2.9,2.9,2.92a.628.628,0,0,0,.88,0,.628.628,0,0,0,0-.88l-2.9-2.92,2.92-2.9A.652.652,0,0,0,37.88,30.28Z" transform="translate(-25.08 -25.08)" fill="#fff" stroke="#fff" stroke-width="1"/>
      <path id="Path_13137" data-name="Path 13137" d="M14,5a9,9,0,1,0,9,9A8.988,8.988,0,0,0,14,5Zm5.48,14.48A7.774,7.774,0,1,1,21.74,14,7.682,7.682,0,0,1,19.48,19.48Z" transform="translate(-5 -5)" fill="#fff" stroke="#fff" stroke-width="1"/>
    </g>
  </g>
</svg>
